<svg xmlns="http://www.w3.org/2000/svg" width="24" height="24" viewBox="0 0 24 24"><g transform="translate(3 3)"><path d="M386.059,256.9c-4.962,0-9,3.385-9,7.546,0,3.73,3.2,6.854,7.527,7.445.293.065.692.2.793.458a1.974,1.974,0,0,1,.029.841s-.106.656-.129.8c-.039.235-.181.919.78.5a29.124,29.124,0,0,0,7.071-5.4h0a6.826,6.826,0,0,0,1.929-4.643C395.059,260.29,391.022,256.9,386.059,256.9Zm-3.175,9.768a.178.178,0,0,1-.175.181h-2.522a.171.171,0,0,1-.121-.05l0,0,0,0a.183.183,0,0,1-.049-.125h0v-4.051a.178.178,0,0,1,.175-.181h.631a.178.178,0,0,1,.175.181v3.218h1.715a.178.178,0,0,1,.175.181Zm1.522,0a.178.178,0,0,1-.175.181H383.6a.178.178,0,0,1-.175-.181v-4.052a.178.178,0,0,1,.175-.181h.631a.178.178,0,0,1,.175.181Zm4.345,0a.178.178,0,0,1-.175.181h-.631a.172.172,0,0,1-.045-.006h0l-.012,0-.005,0-.009,0-.008,0-.005,0-.011-.007h0a.178.178,0,0,1-.044-.045l-1.8-2.511v2.406a.178.178,0,0,1-.175.181h-.631a.178.178,0,0,1-.175-.181v-4.052a.178.178,0,0,1,.175-.181h.663l.01,0,.006,0,.01,0,.006,0,.01,0,.005,0,.009.005.005,0,.009.007,0,0,.009.008,0,0,.011.011h0a.2.2,0,0,1,.014.019l1.8,2.507v-2.407a.178.178,0,0,1,.175-.181h.631a.178.178,0,0,1,.175.181Zm3.486-3.4a.178.178,0,0,1-.175.181h-1.715v.685h1.715a.178.178,0,0,1,.175.181v.652a.178.178,0,0,1-.175.181h-1.715v.685h1.715a.178.178,0,0,1,.175.181v.652a.178.178,0,0,1-.175.181H389.54a.171.171,0,0,1-.121-.051l0,0,0,0a.183.183,0,0,1-.049-.125h0v-4.051h0a.182.182,0,0,1,.048-.125l0,0,0,0a.171.171,0,0,1,.122-.051h2.522a.178.178,0,0,1,.175.181Z" transform="translate(-377.059 -256.905)" fill="#1a1311"/><rect width="24" height="24" transform="translate(-3 -3)" fill="#fff" opacity="0"/></g></svg>