<svg xmlns="http://www.w3.org/2000/svg" width="24" height="24" viewBox="0 0 24 24"><g transform="translate(-267 -13)"><rect width="24" height="24" transform="translate(267 13)" fill="#fff" opacity="0"/><path d="M43.7,16.6A10.407,10.407,0,0,0,54.2,6.1V5.6A8.129,8.129,0,0,0,56,3.7a8.3,8.3,0,0,1-2.1.6,3.891,3.891,0,0,0,1.6-2,9.172,9.172,0,0,1-2.3.9A3.571,3.571,0,0,0,50.5,2a3.757,3.757,0,0,0-3.7,3.7,1.95,1.95,0,0,0,.1.8,10.339,10.339,0,0,1-7.6-3.9,3.83,3.83,0,0,0-.5,1.9,3.973,3.973,0,0,0,1.6,3.1,3.371,3.371,0,0,1-1.7-.5h0a3.655,3.655,0,0,0,3,3.6,3.083,3.083,0,0,1-1,.1,1.7,1.7,0,0,1-.7-.1,3.788,3.788,0,0,0,3.5,2.6,7.55,7.55,0,0,1-4.6,1.6,2.769,2.769,0,0,1-.9-.1,9.439,9.439,0,0,0,5.7,1.8" transform="translate(232 16)" fill="#1a1311" fill-rule="evenodd"/></g></svg>