<svg xmlns="http://www.w3.org/2000/svg" width="24" height="24" viewBox="0 0 24 24"><g transform="translate(-297 -13)"><path d="M-1346,102.552A8.526,8.526,0,0,0-1354.5,94a8.526,8.526,0,0,0-8.5,8.552,8.538,8.538,0,0,0,7.172,8.448v-5.976h-2.158v-2.472h2.158v-1.884a3.009,3.009,0,0,1,3.211-3.327,12.992,12.992,0,0,1,1.9.167v2.1h-1.072a1.232,1.232,0,0,0-1.385,1.336v1.6h2.358l-.377,2.472h-1.981V111A8.538,8.538,0,0,0-1346,102.552Z" transform="translate(1663 -78)" fill="#1a1311"/><rect width="24" height="24" transform="translate(297 13)" fill="#fff" opacity="0"/></g></svg>