<svg xmlns="http://www.w3.org/2000/svg" width="281.61" height="46.708" viewBox="0 0 281.61 46.708"><g transform="translate(-411.418 -460.185)"><path d="M733.14-270.165c-.118.432-.628.157-.961.374-.076-.01-.082-.1-.219-.062a8.872,8.872,0,0,1-.933.028c.051,0-.133-.066-.133-.066-.1.005-.171.08-.3.066-.109-.016-.223-.113-.346-.133-.4-.059-.857.146-1.182-.02-.229.048-.617.191-.841.058a.556.556,0,0,1-.559,0,2.459,2.459,0,0,1-.342.129,2.99,2.99,0,0,0-1.312.061c-.262-.157-.7-.015-.935.063-.1-.053-.247-.053-.313-.124-.776.2-1.751-.264-2.584,0-1.074-.187-2.165.036-3.241-.1-.525.1-1.387.084-1.776.127a1.412,1.412,0,0,0-1.214,0c-.152.006-.1-.1-.216-.127v-.126c-.145,0-.106-.206-.249-.222a1.284,1.284,0,0,1,.127-.668c-.389-.892.194-1.728,0-2.69.155-.286-.066-.672-.1-.9s.162-.451.12-.7c-.019-.1-.143-.28,0-.434-.108-.127-.077-.462.066-.515a6.532,6.532,0,0,1-.066-1.905c-.341-.614.1-1.542-.09-2.283a2.05,2.05,0,0,0-.03-1.016c.068-.192.026-.2,0-.408a.757.757,0,0,0,.056-.417c.095-.145.386.01.465-.154a7.467,7.467,0,0,1,1.5.03c.4-.18,1.2.295,1.555-.03a14.682,14.682,0,0,0,2.706.033,2.187,2.187,0,0,1,.656.13c1.446-.214,2.988-.087,4.429-.258a.531.531,0,0,0,.5,0c1.1.2,2.279-.084,3.492.129a8.829,8.829,0,0,1,1.931,0c.1.127.145.32.313.387a4.162,4.162,0,0,0,.06,1.157,13.738,13.738,0,0,1-.035,1.878c-.02.231-.164.531,0,.764.02.091-.1.033-.071.151a13.3,13.3,0,0,0,.132,1.589,2.251,2.251,0,0,0-.026,1.558c-.117.092-.075.537,0,.637-.055.176-.135.658,0,.823-.086.686-.015,1.378-.06,2.129,0,.034.07.136.06.185a1.839,1.839,0,0,0-.035.867" transform="translate(-166.936 761.693)" fill-rule="evenodd"/><path d="M466.579-275.1a9.688,9.688,0,0,1-2.792-.092c-.316.18-.991-.094-1.319.067a2.764,2.764,0,0,0-1.135.058,10.371,10.371,0,0,0-2.36.069.418.418,0,0,0-.443,0c-.4-.175-1.2.041-1.6-.127-.4.194-.842-.185-1.07,0-.3-.206-.494.147-.88.058.038-.094-.1-.024-.058-.125-.537.162-.982-.021-.719-.578a11.451,11.451,0,0,1,.024-3.252c-.12-1.245.1-2.628-.118-3.783a3.78,3.78,0,0,0,0-1.6c.118-.024.085-.395,0-.427-.036-.1.054-.076.064-.122-.233-.582.165-1.389-.064-1.966a3.1,3.1,0,0,0-.036-1.38c.113.013.033-.145.129-.145.058-.724.015-1.558.1-2.094a2.18,2.18,0,0,1-.06-1.228,2.6,2.6,0,0,1-.066-1.168c-.121-.263.165-.6-.064-.823.206-.333-.054-.744.129-1.11-.175-.248.047-.887-.129-1.132a2.276,2.276,0,0,0,0-1.2c.165-.4.051-1.134.2-1.66a11.441,11.441,0,0,1-.061-1.374c-.047-.027.055-.394-.024-.385,0-.532.093-.427-.066-.793a16.193,16.193,0,0,1-1.883.032c-.049,0-.081.068-.124.061a20.091,20.091,0,0,0-3.4,0c-1.272-.138-2.616.04-3.623-.061-.432.045-1,0-1.631.061a3.209,3.209,0,0,1-.472,0,7.275,7.275,0,0,0-1.513,0c-.064.012-.04-.061-.09-.061-.229.009-.766.15-.956,0-.035.009-.018.061-.063.061a3.806,3.806,0,0,1-.56,1.544c.043.338-.186.627-.253.914a1.355,1.355,0,0,1-.415.774c.017.249-.016.451-.192.521a2.15,2.15,0,0,1-.5,1.134c-.041.731-.534,1.012-.57,1.752-.1-.04-.022.1-.122.056a11.365,11.365,0,0,0-.307,1.449,1.6,1.6,0,0,0-.412.919c-.29.113-.161.643-.437.767v.249c-.1-.039-.027.094-.131.053.052.253-.1.322-.055.555-.417.689-.419,1.771-.947,2.335.046.205-.095.239-.066.43h-.125c-.149.794-.47,1.422-.629,2.214a.792.792,0,0,0-.315.671.977.977,0,0,0-.318.767c-.126-.047.014.171-.125.123-.084.874-.594,1.314-.688,2.184a.765.765,0,0,0-.255.645c-.1-.044.08.094-.024.057,0,.12-.1.247-.1.369-.212,0-.184.228-.184.429-.2.369-.308.927-.605,1.2v.3c-.2.253-.159.6-.253.893a9.015,9.015,0,0,0-.376.891c-.015.069.022.171,0,.242-.043.138-.186.262-.254.436-.048.115-.02.256-.065.362-.01.037-.1.07-.119.123s.017.149,0,.186c-.063.12-.253.172-.193.336-.059.063-.227.021-.188.184-.314.009-.567-.152-.751.057-.1.025-.042-.1-.159-.057a2.3,2.3,0,0,1-1.22.057c-.441.17-1.223-.153-1.664,0a28.856,28.856,0,0,0-2.893.067,17.248,17.248,0,0,0-2.8,0,2.15,2.15,0,0,0-1.1,0,15.7,15.7,0,0,0-3.492,0c-.148-.019-.26-.117-.378,0a.8.8,0,0,0-.688,0,6.014,6.014,0,0,0-.695,0c-.175-.017-.336-.136-.441,0-.351-.067-1.184.043-1.7-.067-.059-.011-.067.067-.067.067a3.857,3.857,0,0,1-.972-.067,10.712,10.712,0,0,1-2.514.125c-.057,0-.1.069-.158.069-.129-.014-.4-.154-.506,0-.258-.137-.625-.175-.814-.377-.018-.182.005-.333.123-.394a12.89,12.89,0,0,1,.759-2.674c.088.025.111-.027.186-.027a12.359,12.359,0,0,0,.565-2.064c.252-.172.19-.668.44-.857v-.277a1.065,1.065,0,0,0,.379-.856,13.941,13.941,0,0,1,.821-1.935c-.113-.654.419-.675.308-1.32.214-.175.209-.553.444-.708-.07-.411.159-.542.126-.924a.657.657,0,0,0,.25-.637c.292-.169.149-.762.5-.866.245-1.029.866-1.7,1.008-2.822.1.036.025-.1.125-.061-.03-.595.451-.683.376-1.32a2.166,2.166,0,0,0,.507-1.261,12.5,12.5,0,0,0,.817-2.267c.049-.057.028-.174.127-.186.108-.8.5-1.043.575-1.681a1.831,1.831,0,0,0,.28-.8,1.831,1.831,0,0,1,.033-.212c.02-.026.113-.026.127-.061.051-.109.019-.267.065-.369.02-.036.029-.024.045-.07.061-.108.061-.3.129-.427.037-.063.2-.2.253-.3.021-.147.047-.554.165-.6-.122-.157-.839-.154-1.016-.055-1.121-.092-3.246-.014-4.562-.066-1.205.144-2.68.025-3.991.066-.033-.1-.055-.112-.1-.126-.021-.1.029-.113.067-.152a22.655,22.655,0,0,1-.067-3.427c.045-.116-.083-.06-.056-.158.072-.076.043-.254.122-.337.1-.021.119.032.156.064a9.1,9.1,0,0,1,1.547-.011c.068-.008.1.046.182.046.055,0,.091-.074.143-.066.175.013.487.118.684-.053.459.17,1.13-.164,1.65.053.127.041.187-.064.278-.053a2.225,2.225,0,0,0,1.069.056c.2.1.568-.035.706.126.375-.226.986.042,1.258-.182a10.431,10.431,0,0,0,2.613,0c.2.129.434.158.552.021a.483.483,0,0,0,.317.032,3.524,3.524,0,0,0,.2-.741c.169.038.094-.2.216-.211v-.247c.153-.061.2-.231.192-.461.421-.849.578-1.947,1.066-2.727a3.241,3.241,0,0,1,.255-1.013c.015-.026.108-.029.124-.069.1-.2.053-.456.249-.579v-.243c.109,0,.084-.126.194-.122,0-.527.357-.7.312-1.265.1.042.029-.1.124-.057v-.247c.128-.107.1-.336.187-.553.037-.077.166-.162.191-.248.016-.05-.021-.138,0-.182.043-.085.161-.12.188-.209s-.025-.175,0-.252c.05-.113.163-.2.188-.3.049-.178.013-.291.066-.492.021-.1.1-.184.127-.275.049-.235-.014-.422.182-.552a1.229,1.229,0,0,1,.381-1.012c-.026-.115.07-.159.074-.313.115-.316.557-.117.807-.308.1-.017.119.033.158.065.441-.2,1.137.158,1.6-.065.09.126.535.077.635,0-.015.129.22.01.22.126a11.236,11.236,0,0,1,1.252-.126,4.02,4.02,0,0,1,1.357.126c.072-.042.168-.061.221-.126,1.31.161,2.626-.073,3.836.191.1.032.076-.052.129-.065.587-.164,1.111.109,1.568,0a22.517,22.517,0,0,0,2.673-.061c.065.109.261-.028.381.061a2.384,2.384,0,0,1,1.633.065c.1.017.044-.107.157-.065.133.055.312.065.444.121a.6.6,0,0,1,.534,0c.362-.121.913-.052,1.254-.182.841.134,1.782-.061,2.49.061.126-.012.177-.094.28-.126a5.508,5.508,0,0,1,1.7.247c.016.2,0,.374-.129.434a1.646,1.646,0,0,1-.347.953,1.632,1.632,0,0,1-.378,1.069c.066.333-.169.371-.124.675-.193.018-.08.318-.254.339a4.2,4.2,0,0,1-.443,1.448c-.063.767-.555,1.207-.661,1.93-.272.231-.28.736-.446,1.073,0,.094.108.061.067.184-.134.158-.222.448-.418.553a2.35,2.35,0,0,1-.433,1.141,1.988,1.988,0,0,1-.316.915,2.177,2.177,0,0,1-.542,1.2c.037.19-.21.291-.163.5a3.774,3.774,0,0,1,.76.053c.124.019.281-.072.408-.064.1.013.582.083.683.089a7.234,7.234,0,0,0,1.6-.025c.091-.019.162-.113.253-.124.033,0,.08.168.127.159a5.4,5.4,0,0,0,.688-.119c.155.1.531,0,.665.119.463-.189.867.092,1.291-.159-.043.1.1.028.061.124a20.12,20.12,0,0,1,2.769.094c.866-.214,1.634.046,2.516-.158a4.553,4.553,0,0,0,1.666,0c.254-.016.481.1.727.089.214-.006.449-.162.658-.149.124-.039.063.1.187.06.529-.185,1.022.125,1.542,0a4.049,4.049,0,0,0,1.95-.06,3.248,3.248,0,0,0,.88,0,5.411,5.411,0,0,0,1.889.06c.842.307,1.73-.251,2.516.064.258-.053.633-.218.825.025a1.317,1.317,0,0,0,.08.74.525.525,0,0,0,0,.464,4.567,4.567,0,0,0-.123,1.447,4.827,4.827,0,0,0-.089,1.1c-.006.11.081.205.061.305a1.17,1.17,0,0,0,.067.675c-.062.078-.025.241-.128.277.189.264.081.739,0,1.077a1.247,1.247,0,0,1,0,.858c.024.272.291.565.128.828.195.43-.082,1.133.061,1.505-.027.709-.186,1.671-.189,2.55,0,.35.1.719.128,1.043,0,.1-.067.184-.067.273.021.563.025.979.067,1.441a3.6,3.6,0,0,0,0,1.63,1.915,1.915,0,0,0-.067,1.168c0,.444-.129.914.091,1.131-.086.459.05.923-.1,1.232.136.056-.023.387.124.429-.088.084-.188.35-.1.434a2.777,2.777,0,0,0,.1,1.281,2.2,2.2,0,0,0,.067.955c-.219.467.065,1.075-.067,1.475.1.725.058,1.59.118,2.086-.035.053-.026,1.078-.026,1.382a5.438,5.438,0,0,0,.063.8c-.127.306-.009.849-.127,1.169a.387.387,0,0,1-.119.67" transform="translate(4 781.794)" fill-rule="evenodd"/><path d="M563.952-304.743c.068-.632.09-1.49.123-2.1.006-.045-.065-.082-.059-.126,0-.1.153-9.454,0-9.556.092-.391-.3-1.509.313-1.642.487.056,1.053-.026,1.687.032a7.658,7.658,0,0,0,2.1,0c.6.073,1.252-.118,1.691,0,.128-.147.594.126.723-.021.036-.152.495-.053.506,0a6.678,6.678,0,0,0,1.784.021,4.806,4.806,0,0,1,1.442,0c.118.046.058-.083.155-.059a3.175,3.175,0,0,0,1.283.072,13.844,13.844,0,0,0,1.881,0c.141.129.565-.109.694.024a3.151,3.151,0,0,1,1.248-.058c.049-.064.294.11.31.02.384-.04.272,0,.459.158-.091.147.15.327-.046.431.225.561.033,10.363.126,10.879-.161.163.029.671-.126.843.126.129.025.276,0,.54-.051.537.091,1.471-.063,1.63a3.367,3.367,0,0,1,.063,1.473,28.8,28.8,0,0,1,.253,3.554c-.132.1.022.48-.128.57.153.113-.03.548.128.662-.207.967.146,2.126-.191,2.981.153.154-.025.626.128.781-.316.342.214.995-.065,1.475a1.879,1.879,0,0,1,0,1.054c.149.141-.022.584.128.723-.157.471.152,1.333-.063,1.865-.043.1.1.024.063.122-.15.074-.012.362.058.419-.07.582-.34,1.391-.1,1.737-.187.2-.046.568-.057.889.2.029.355-.174.416-.277.192.034.224-.084.313-.151.607-.084.792-.576,1.346-.721a3.258,3.258,0,0,1,1-.663,1.259,1.259,0,0,1,.815-.448c.021-.052.1-.052.1-.126h.217c.132-.181.382-.186.561-.3a5.1,5.1,0,0,1,.664-.484c.289-.137.655-.154.81-.448.143.042.1-.088.219-.063.047-.067.141-.088.157-.181h.158c.2-.315.71-.344.845-.722.157-.1.38-.139.439-.333.194,0,.324-.053.379-.18h.217c.2-.183.5-.26.661-.484.572-.077.7-.594,1.346-.6.353-.373.933-.511,1.156-1a1.962,1.962,0,0,0,.351-.053c.184-.069.292-.228.467-.3.2-.089.417-.078.6-.182.061-.044.033-.1.094-.153.02-.016.1.017.121,0,.069-.039.126-.189.189-.238.155-.1.431-.112.506-.3.472-.035.592-.417,1.031-.48.088-.108.219-.17.282-.3.214.029.237-.118.446-.1.03-.083.083-.147.121-.236.143.043.1-.086.22-.062.525-.419,1.213-.7,1.72-1.142.1-.024.042.1.163.061a.68.68,0,0,0,.155-.215,3.025,3.025,0,0,0,.624-.36,1.313,1.313,0,0,0,.471-.119.651.651,0,0,0,.28-.3c.212-.019.269-.178.377-.3.27.044.346-.1.438-.242.47.036.959-.027,1.44-.027a8.1,8.1,0,0,1,1.1.093c1.046.125,2.233-.139,3.171,0,.043,0,.067.058.067.058.042,0,.086-.065.121-.058.2.014.462.149.661,0,.1-.007.222-.016.245.058,0-.136.288.017.284-.124.151.044.376.17.5.066.1-.026.039.1.158.058.157-.126.571.005.721-.124a26.333,26.333,0,0,1,2.667.066c.228-.055.183-.007.374-.066.915.235,2.195-.012,3.257.183a1.057,1.057,0,0,1,.754,0c.069-.093.279-.05.377-.117a15.068,15.068,0,0,0,2.506,0,4.559,4.559,0,0,0,1.536.058c.328.208.913-.163,1.249.059.1.032.029-.1.129-.059.413.155,1.354-.214,1.695.059.1-.107.331-.078.434-.183.3.076.942-.056,1.2.21-.046.115-.1.235,0,.333a4.37,4.37,0,0,1-1.286,1c0,.13-.179.093-.157.24-.258-.009-.493.01-.5.239-.149-.03-.124.107-.284.058a1.9,1.9,0,0,1-.746.544c-.053.07-.148.091-.161.183a.75.75,0,0,0-.443.33,2.943,2.943,0,0,0-1,.54,3.633,3.633,0,0,0-1.256.6h-.218a4.97,4.97,0,0,1-1.7,1.114c-.039.009-.022.076-.029.118-.149-.033-.12.109-.279.061-.367.289-.946.387-1.225.752a.558.558,0,0,0-.5.3h-.154c-.429.438-1.029.7-1.472,1.113-.282-.031-.364.12-.6.12-.259.276-.728.362-.97.667a.553.553,0,0,0-.505.3c-.53.038-.905.457-1.349.691-.017.1-.113.145-.148.236h-.223c-.206.112-.44.44-.814.487-.119.261-.514.266-.59.57-.372.139-.517.492-.982.543a10.765,10.765,0,0,0-1.1.75.994.994,0,0,0-.619.422c-.255-.03-.27.169-.539.117-.307.352-.98.194-1.1.695-.513.019-.666.381-1.162.421a3.3,3.3,0,0,1-1.7,1.115c-.045.132-.166.193-.367.18-.213.236-.744.414-.977.719-.636.131-.86.663-1.474.821-.265.384-.8.532-1.093.9h-.22c-.033.089-.182.081-.221.175-.771.2-1.088.838-1.909.991a5.888,5.888,0,0,1-1,.637c-.038.059-.063.118-.1.176a.686.686,0,0,0-.5.361,1.314,1.314,0,0,0-.749.363c-.182-.045-.176.092-.342.06a3.079,3.079,0,0,1-1.067.754c-.045.006-.025.073-.033.121-.18,0-.233.14-.311.243-.568.046-.746.465-1.22.6-.033.061-.121.049-.1.154a.965.965,0,0,0-.688.295c-.191.022-.379.039-.437.186-.075-.046-.167-.06-.222-.122-.161.28-.625-.074-.782.178a1.677,1.677,0,0,0-1.1-.056,7.639,7.639,0,0,0-1.79-.06c.053-.132-.176,0-.121-.126a4.185,4.185,0,0,1-1.729.064c-.043.105-.413.062-.5-.064-.867.064-1.81-.013-2.725.126-.049-.166-.48.039-.529-.126-.313.158-.907.039-1.162.242-.612-.1-1.435-.073-2.07-.116-.127-.011-.287-.172-.373,0-.192-.042-.545-.208-.72-.062-.431-.126-.789,0-1.164-.119-.769.315-1.807,0-2.69.182-.315-.2-.87-.072-1.162-.062a2.156,2.156,0,0,0-.941.122,4.484,4.484,0,0,0-1.595-.06c-.157-.055-.575-.22-.635,0-1.253-.088-1.933.267-2.877-.062a.305.305,0,0,0-.13-.3,6.015,6.015,0,0,0,.038-1.536,2.74,2.74,0,0,0-.061-1.293c.194-.477-.088-1.005,0-1.626a2.806,2.806,0,0,0,.023-.778,3.722,3.722,0,0,1,0-.942c0-.03.038-.072.038-.116a5.394,5.394,0,0,0,0-1.565c.07-.369.014-.8.092-1.146.01-.06-.064-.052-.064-.06a17.443,17.443,0,0,0-.028-2.831c.07-.069.133-.424,0-.482.086-.089.113-.482,0-.568a12.331,12.331,0,0,0,.028-1.867.794.794,0,0,0,0-.691,4.506,4.506,0,0,0,.064-1.623c.153-.2-.045-.729.124-.906a29.758,29.758,0,0,0-.124-3.677,2.281,2.281,0,0,0-.064-1.473,3.063,3.063,0,0,0,0-1.324,19.868,19.868,0,0,0,.031-2.164,5.353,5.353,0,0,0-.031-1.626,2.011,2.011,0,0,0,0-1.086" transform="translate(-83.127 781.777)" fill-rule="evenodd"/><path d="M912.749-319.491c1.084-.417,2.592-.12,3.723-.077.846.032,1.773.051,2.554,0,.573-.034,1.131.123,1.726.084a14.71,14.71,0,0,1,1.573-.119c1.238.055,2.553-.1,3.778.005,1.8.16,3.537.014,5.408.1,1.921.088,3.857.032,5.732,0a7.99,7.99,0,0,1,.148,2.359c0,.9.03,1.838.026,2.717,0,.746-.119,1.524-.05,2.213.1,1-.481.841-1.4.828-1.449-.02-2.84-.029-4.282-.023-.7,0-1.38,0-2.053-.006a9.967,9.967,0,0,0-1.918-.046,36.025,36.025,0,0,1-5.137.027c-1.779.051-3.564.1-5.341.062-1.361-.029-2.781.019-4.185.06-.8.023-1.616.046-2.406.09a3.539,3.539,0,0,1-1.071-.022c-.346-.22-.184-.728-.19-1.148-.013-.924-.038-1.8-.109-2.706-.075-.969.008-1.879.011-2.854a7.455,7.455,0,0,1-.025-1.259c.1-.55.322-.469.823-.414.446.049.913.07,1.337.076.278,0,1.155-.2,1.326.044.587-.225-.047-.067,0,0" transform="translate(-275.433 782.578)" fill-rule="evenodd"/><path d="M908.9-279.827c.225-.269-.012-1.2-.021-1.516-.02-.711-.111-1.406-.074-2.115s-.042-1.422-.031-2.13.169-1.4.139-2.108c-.014-.321-.193-.879.016-1.039.191-.147,1.259.03,1.522.017.893-.044,1.933.038,2.883-.009,2.715-.135,5.3.094,8-.01s5.385.063,8.076-.024c1.244-.04,2.518,0,3.769,0,1.014,0,2.038.1,3.1.074.65-.017,1.312-.012,1.973-.028a4.96,4.96,0,0,0,1.5-.027c.194-.113.481-.641.632-.8a9.826,9.826,0,0,0,.689-.857c1.135-1.5,2.2-3.046,3.378-4.544.217-.276.407-.573.618-.883.349-.512.761-.971,1.148-1.508a11.4,11.4,0,0,1,.914-1.277c.324-.342.7-.7,1.017-1.093.818-1.025,1.625-2.088,2.322-3.123.662-.983,1.485-1.741,2.253-2.683.087-.107.145-.385.243-.523.085-.12.255-.266.317-.345.38-.483.845-.983,1.164-1.491a28.736,28.736,0,0,1,1.878-2.657.057.057,0,0,1,.031.06c.659-.7,1.209-1.609,1.755-2.312a14.439,14.439,0,0,0,1.764-2.186,16.566,16.566,0,0,1,1.591-2.132,17.713,17.713,0,0,1,1.594-2.062,9.946,9.946,0,0,0,1.336-1.919c.4-.64.869-1.116,1.268-1.745.276-.435,1.983-3.055,2.441-2.754a30.459,30.459,0,0,0,.037,3.072c-.053.787-.092,1.589-.082,2.381.017,1.484.008,2.91.053,4.369.052,1.689.112,3.4.086,5.044-.024,1.588.029,3.168-.1,4.747-.089,1.106-.076,2.229-.107,3.343-.014.494.131,1.043.07,1.57-.073.635-.554.994-.946,1.478-1.359,1.681-2.768,3.616-4.228,5.412-.463.569-.88,1.14-1.3,1.72-.31.424-.674.836-1,1.356-.2.314-.5.688-.726.986-.474.623-.867,1.335-1.4,1.905a8.413,8.413,0,0,0-.743.814c-.158.226-.324.512-.526.76-.151.183-.339.362-.482.542-.057.071-.007.246-.06.3-.112.119-.318.186-.438.3l-.017.18q.008.241-.233.154a19.726,19.726,0,0,1-2.325,3.148,16,16,0,0,0-1.118,1.545,5.111,5.111,0,0,1-.592.763,3.6,3.6,0,0,1-.983.033c-1.367.048-2.683-.066-4.053-.061-2.8.01-5.755,0-8.6-.051-3.763-.064-7.392.089-11.1.078-2.744-.008-5.979-.136-9.03-.054-.012.025.009.026.031.026-.232.126-.747-.025-1.005-.033-.542-.017-1.084.018-1.624.044-.844.041-1.726.006-2.527,0-.693,0-1.375-.02-2.089,0-.5.015-1.745.342-2.056-.128.2-.237.061.092,0,0" transform="translate(-275.179 785.78)" fill-rule="evenodd"/><path d="M934.381-286.838a4.874,4.874,0,0,1,1.476.016c.5-.02.946-.046,1.455-.018.983.053,1.874-.056,2.856-.086A27.06,27.06,0,0,1,943-286.8c.995.076,2.02-.162,3.033-.1.706.047,2.348-.514,2.348.559,0,.763-.028,1.4,0,2.121.036.951-.072,1.975-.037,2.926.027.731.519,2.169-.153,2.754a7.361,7.361,0,0,0-3.09.054c-.917.1-1.941.036-2.831.067-1,.035-2.176-.18-3.208-.121-1.172.067-2.24.047-3.38.041-1.376-.008-2.764-.136-4.139-.1-.552.014-1.137.182-1.682.182-.339,0-.7-.219-1.021-.242-.374-.027-.785.066-1.163.064a55.051,55.051,0,0,0-7.446.116c-.173-1.6-.068-3.074-.168-4.656a19.078,19.078,0,0,1,.078-2.155c.012-.245-.135-1.5.151-1.615a8.835,8.835,0,0,0,1.726.055c.478.036,1.036.049,1.543.038.659-.015,1.313-.014,1.972-.028a8.074,8.074,0,0,0,2.272-.065c-.018.025-.038.053,0,.065.3-.191.994-.053,1.328-.035a15.42,15.42,0,0,0,1.832.024c.541-.034,1.091-.092,1.627-.115.335-.015,1.59-.138,1.792.126.4-.144-.049-.065,0,0" transform="translate(-281.317 764.308)" fill-rule="evenodd"/><path d="M779.533-284.381c.1.045-.049.2-.192.187.03.184-.154.159-.129.337a.7.7,0,0,0-.628.5c-.246-.019-.092.265-.345.247.041.144-.1.105-.062.247-.232.019-.335.264-.475.37-.383.106-.44.451-.776.654a.462.462,0,0,0-.188.312c-.129-.044-.1.067-.188.065-.012.308-.6.256-.645.522-.141-.04-.194.291-.32.258-.032.025-.032.07-.089.061-.417.785-1.223,1.181-1.772,1.831-.172.029-.151.163-.309.246a1.742,1.742,0,0,0-.416.372,1.758,1.758,0,0,0-.123.309c-.1-.016-.036.107-.154.061-.062.175-.386.183-.386.4-.36.094-.407.49-.789.56-.116.045-.08.236-.224.249,0,.058-.1.126-.1.189a.145.145,0,0,0-.125.184c-.43.076-.267.541-.849.463a.316.316,0,0,1-.109.247c-.3-.132-.765.212-1.175-.026-.267.282-.842-.159-1.019.061-.143-.1-.481-.007-.6-.132a8.038,8.038,0,0,1-1.17.132,4.06,4.06,0,0,0-1.327,0c-.047-.106-.517-.106-.566,0-.055.009-.057-.028-.065-.061-.126.147-.657-.016-.692.061-.086,0-.065-.106-.189-.061-1.662.147-3.567-.385-5.11-.044,0-.1-.386-.1-.385,0a5.594,5.594,0,0,0-2.083,0c-.253-.289-.988.122-1.386-.122-.051.061-.178.034-.186.122a10.661,10.661,0,0,0-2.087-.089c-.149-.139-.562.21-.787,0-.121-.053-.061.077-.156.055-.724-.157-1.319.246-1.776-.175v-.251a.65.65,0,0,0,.315-.341,4.357,4.357,0,0,0,1.573-1.486.367.367,0,0,0,.35-.364c.136.005.2-.055.191-.189.283-.113.537-.454.769-.625.267.056.233-.2.438-.214v-.186c.43-.167.379-.614.779-.807.045-.054.221-.064.2-.186.11.021.151-.012.126-.121.38-.1.437-.523.788-.652,0-.216.308-.134.286-.374.366.032.262-.406.562-.435.008-.337.463-.235.506-.528.232.011.239-.186.449-.186-.045-.143.1-.107.061-.249a.342.342,0,0,0,.316-.306.953.953,0,0,0,.6-.658c.243-.105.252-.252.429-.436.2-.006.372-.044.376-.248.816-.35,1.1-1.044,1.728-1.574.049-.009.025-.082.031-.123.189.034.123-.173.318-.13.03-.263.309-.3.376-.527.165.017.266-.024.252-.185.272-.06.355-.293.6-.37.075-.106.121-.235.277-.248a.4.4,0,0,1,.35-.378,6.1,6.1,0,0,1,1.014-1.024c.039-.015.024-.074.027-.123.267-.109.369-.38.637-.5v-.151c.25-.106.31-.3.464-.493h.158a2.139,2.139,0,0,1,.348-.19c0-.354.478-.329.539-.618.055-.061.109-.022.1-.16h.155a6.026,6.026,0,0,1,.824-.744c.039-.046.119-.064.094-.186.525-.266.661-.824,1.127-1.149.035-.057.063-.12.1-.178.416-.122.527-.537.915-.686.177-.228.233-.384.558-.465a.783.783,0,0,1,.537-.5c-.048-.2.093-.2.126-.309h.221c.308-.325.625-.626.92-.971a.228.228,0,0,0,.251-.241c.445-.2.85-.858,1.246-1.108a.254.254,0,0,0-.264-.205.454.454,0,0,0-.382-.252c-.2-.252-.143-.174-.463-.329-.049-.084-.091-.186-.241-.184-.07-.094-.082-.234-.258-.215.037-.11-.1-.28-.316-.251.047-.12-.071-.1-.062-.182-.355-.084-.375-.5-.76-.563-.19-.438-.774-.5-1.009-.9h-.189c.036-.089-.072-.05-.126-.056-.345-.5-.746-.568-1.073-1.09H767.5v-.125c-.386-.151-.535-.543-.948-.681,0-.09-.1-.056-.055-.184-.3-.023-.278-.353-.571-.373.043-.113-.086-.058-.066-.158-.358-.056-.431-.4-.815-.427a5.931,5.931,0,0,0-1.267-.932c0-.115-.061-.172-.189-.158a2.278,2.278,0,0,0-1.336-1.125c.043-.124-.069-.092-.061-.186-.3-.067-.351-.38-.635-.466v-.374c.36-.118.617-.643.933-.8a.932.932,0,0,1,.539-.712c.128-.467.417-.379.56-.83h.128c-.01-.134.055-.2.188-.186.141-.636.765-.806,1.014-1.335.335-.046.335-.41.567-.56v-.184a1.909,1.909,0,0,0,.626-.838c.34-.036.31-.415.6-.492a4.791,4.791,0,0,0,.79-1.153c.243-.071.405-.224.63-.308v-.185c.371-.271.559-.714.885-1.022a.345.345,0,0,0,.315-.314c.17-.143.382-.246.447-.494.1-.032.09.016.156-.065.043-.008.026-.072.033-.121.162-.074.2-.282.251-.468.128-.1.294-.167.31-.371a.43.43,0,0,0,.256-.375c.141.05.1-.08.217-.06a4.671,4.671,0,0,1,.655-.834.347.347,0,0,0,.283.061c.1.146.2.316.4.363a1.353,1.353,0,0,0,.661.454c0,.226.305.155.308.358a1.571,1.571,0,0,1,.7.622c.3.038.3.367.631.371.191.147.319.354.568.436.154.247.418.378.57.618.558-.02.492.581,1.007.589.146.146.209.375.509.375.076.255.462.2.5.5.126-.046.1.065.184.062v.191a.216.216,0,0,0,.257.082,4.034,4.034,0,0,0,1.451,1.122c.39.487,1.009.747,1.393,1.242.216.036.2.311.5.279a.153.153,0,0,0,.189.121,1.6,1.6,0,0,0,.691.589c.066.413.606.359.7.746.149-.045.1.1.248.06.459.526.479.132.853.752a7.8,7.8,0,0,1,1.613-1.4c.025-.375.556-.254.534-.68a2.3,2.3,0,0,0,.442-.248v-.182a.253.253,0,0,0,.258-.279.885.885,0,0,0,.312-.316c.23-.039.31-.222.442-.37.264-.037.829-.68,1.154-.968a3.866,3.866,0,0,0,.509-.416.964.964,0,0,0,.121-.3c.14.012.2-.048.19-.186.537-.237.738-.807,1.233-1.084.03-.295.449-.2.474-.494.192-.1.393-.195.443-.434.353-.039.411-.387.727-.528.042-.01.022-.085.027-.125a.236.236,0,0,0,.253-.251,11.15,11.15,0,0,0,1.291-1.26c.161.044.166-.061.284-.061.044-.01.024-.078.03-.122a5.3,5.3,0,0,0,1.135-.155.155.155,0,0,1,.127.125c.291-.027.694.063.883-.06.5.224,1.107.029,1.708.09a4.416,4.416,0,0,0,1.323-.061c-.037.084.1.084.063,0,.431.094.968-.144,1.483.061.336-.211.937.166,1.294-.061a26.921,26.921,0,0,1,2.712.061c.109-.1.373-.05.572-.061.055.061.3.109.347,0a20.847,20.847,0,0,0,3.279,0c.122-.012.1.1.253.061.024-.05.1-.047.1-.124a14.436,14.436,0,0,0,2.336.063,1.281,1.281,0,0,0,.847.061c.721,0,1.283.076,2.166.059.041.147.242.136.191.369-.154.108-.249.077-.249.333-.082.214-.214.272-.28.5-.325.04-.388.349-.663.435-.138.342-.436.233-.562.578-.317.053-.274.341-.6.371.042.149-.1.107-.063.255-.561.148-.629.779-1.163.957-.045.007-.032.081-.033.125-.428-.06-.408.472-.7.432.046.256-.295.118-.255.377-.417.1-.434.505-.81.649-.029.173-.231.167-.221.373-.138-.008-.2.05-.191.186-.137-.011-.2.054-.19.187-.227-.032-.16.213-.381.184.045.141-.093.1-.065.22-.474.018-.511.566-.948.62-.143.324-.176.174-.27.55-.157.087-.258.244-.469.278-.043.048-.123.066-.1.191-.814.471-1.167,1.309-1.946,1.825-.1.155-.244.281-.35.432a.584.584,0,0,0-.567.435c-.1-.024-.116.032-.19.028.033.217-.817.737-.787.961-.547.2-.57.807-1.131.991a1.617,1.617,0,0,1-.345.338h-.163c-.149.261-.5.317-.6.621h-.122c.039.126-.07.1-.065.188a.238.238,0,0,0-.251.248,3.113,3.113,0,0,0-.885.774c-.234.04-.33.215-.377.436a2.177,2.177,0,0,0-.506.5h-.164c-.029.076-.114.1-.093.217a.237.237,0,0,0-.249.246,1.388,1.388,0,0,0-.508.444c-.26.047-.352.264-.441.492-.438.086-.534.508-.912.651-.034.123-.2.187-.285.309-.021.024.021.1,0,.126-.083.092-.212.155-.284.243-.112.138-.5.093-.512.363.189.226.455.278.6.559.167.13.45.251.541.466a2.542,2.542,0,0,1,.875.729c.267.031.271.312.567.312.392.517,1.141.68,1.456,1.272a.236.236,0,0,1,.247.216,11.838,11.838,0,0,0,1.761,1.394c.081,0,.169.2.252.2a1.419,1.419,0,0,0,.662.492,1.618,1.618,0,0,0,.787.62v.128c.235.05.245.314.507.341v.124c.36.081,1.093,1.062,1.459,1.143.053.089.093.2.251.184.458.434,1.141.654,1.511,1.18a1.169,1.169,0,0,0,.509.278c-.021.2.074.3.251.314a1.982,1.982,0,0,0,.627.587c.333.424.982.532,1.121,1.053-.19.1-.276.309-.5.371v.186c-.116.239-.355.358-.449.617-.351.347-.576.822-1.07,1.026.074.359-.376.2-.309.557-.343.186-.5.652-.833.838a4.046,4.046,0,0,0-.551.864c-.4.05-.374.525-.727.624.028.212-.221.147-.2.369-.254.021-.18.372-.439.4v.186c-.253.306-.649.48-.758.932-.149.045-.167.2-.312.245v.155c-.713.429-1.175,1.285-1.754,1.847v.184c-.165.171-.43.239-.441.562-.39.075-.529.4-.694.71-.1.052-.2.1-.19.248-.338.093-.341.616-.679.7-.042.013-.029.077-.039.122-.23.044-.131.076-.257.218h-.258a5.144,5.144,0,0,0-1.633-1.3v-.121c-.237-.017-.241-.258-.509-.253-.185-.335-.51-.342-.656-.65a.249.249,0,0,1-.251-.224,10.067,10.067,0,0,0-1.325-.93.475.475,0,0,0-.382-.373,2.59,2.59,0,0,0-.692-.551v-.128c-.294-.052-.287-.4-.635-.4v-.153c-.337-.158-.527-.449-.882-.594v-.123c-.208-.023-.27-.186-.375-.309-.421-.059-.333-.407-.69-.529v-.123c-.239.014-.194-.264-.439-.246a3.615,3.615,0,0,0-.793-.621v-.123c-.366-.232-.661-.632-1.11-.777.042-.2-.225-.061-.191-.309-.955-.524-1.525-1.322-2.484-1.833.039-.119-.108-.058-.069-.182A21.846,21.846,0,0,1,784-288.617c-.288.041-.753.879-1.039.923.051.146-.141.174-.187.244s-.023.2-.062.251c-.049.067-.147.056-.225.123a1.314,1.314,0,0,1-.312.282,8.807,8.807,0,0,1-.692.557c-.1.049-.029.082-.12.152a1.462,1.462,0,0,0-.286.245,2.089,2.089,0,0,1-.321.44c-.09.064-.295.089-.252.288-.529.144-.476.563-.975.733" transform="translate(-186.553 782.233)" fill-rule="evenodd"/></g></svg>